# xmcd
#
# Track frame offsets:
# 182
# 102397
# 116947
# 133445
# 148817
# 161197
# 179345
# 195095
# 207337
#
# Disc length: 3055 seconds
#
#
# Revision: 0
# Processed by: cddbd v1.5.2PL0 Copyright (c) Steve Scherf et al.
# Submitted via: FreeRIP 2.90 
#
DISCID=8e0bed09
DTITLE=One for the Road - One for the Road
DYEAR=1996
DGENRE=Country
TTITLE0=Dance Mix Medley
TTITLE1=Alan Jackson - Summertime Blues
TTITLE2=Michelle Wright - One Food Man
TTITLE3=Blackhawk - Goodbye Says it all
TTITLE4=Pam Tillis - When you walk in the room
TTITLE5=Radnay Foster - Hammer and Nails
TTITLE6=Michelle Wright - Safe in the arm of love
TTITLE7=Lee Roy Parnell - A little bit of you
TTITLE8=Brooks and Dunn - You´re gonna miss Me when I´m gone
EXTD=
EXTT0=
EXTT1=
EXTT2=
EXTT3=
EXTT4=
EXTT5=
EXTT6=
EXTT7=
EXTT8=
PLAYORDER=
